<svg xmlns="http://www.w3.org/2000/svg" width="11" height="16" style=""><rect id="backgroundrect" width="100%" height="100%" x="0" y="0" fill="none" stroke="none"/>
    
<g class="currentLayer" style=""><title>Layer 1</title><path fill="#CFB995" fill-rule="nonzero" d="M10.79 10.204a.765.765 0 0 0-1.055-.006l-3.489 3.373V.717A.731.731 0 0 0 5.502 0a.731.731 0 0 0-.745.717V13.57l-3.489-3.379a.77.77 0 0 0-1.054.006.704.704 0 0 0 .006 1.017l4.755 4.58a.839.839 0 0 0 .235.15.759.759 0 0 0 .808-.15l4.754-4.58a.693.693 0 0 0 .017-1.011z" id="svg_1" class="selected" transform="rotate(-180, 5.5, 8.00195)"/></g></svg>